<svg xmlns="http://www.w3.org/2000/svg" xmlns:xlink="http://www.w3.org/1999/xlink" width="152" height="152" viewBox="0 0 152 152"><defs><clipPath id="b"><rect width="152" height="152"/></clipPath></defs><g id="a" clip-path="url(#b)"><g transform="translate(-97.472 -40)"><path d="M140.911-297.473c-6.106,2.421-12.844,6.211-15.792,8.738-2.632,2.211-5.475,2.422-20.846,1.369-22.425-1.684-47.8-5.79-61.378-10.107-1.369-.421-1.9,0-1.9,1.369,0,3.264,5.9,14.634,8.844,16.95,5.369,4.106,17.055,5.9,40.322,5.9,11.791.105,21.372.211,21.372.316s-1.369,2.211-3.053,4.738c-3.685,5.475-12,20.53-17.792,32.005-10.949,21.9-22.951,54.746-25.478,69.8-1.158,7.159-1.158,7.9.737,10.528,2.316,3.159,9.054,7.159,12.844,7.685,2.527.316,2.737-.105,3.9-7.685,2.843-18.635,12.212-48.955,22-71.906,6.212-14.529,16.74-35.69,20.635-41.27l2.948-4.316,9.791-1.158c11.16-1.263,21.372-4.632,23.056-7.685.842-1.579.526-2.843-1.158-5.685C157.861-291.367,148.807-300,147.438-300A67.711,67.711,0,0,0,140.911-297.473Z" transform="translate(60.688 340)"/><path d="M142.763-240.747c-8.738,2.421-18.845,13.055-25.9,27.268a63.938,63.938,0,0,0-7.264,30.426c0,8.317.316,10.739,2.211,14.318,4.422,8.422,14.318,14.529,23.477,14.529,10.844.105,24.215-8.317,34.532-21.688,4.632-6.106,11.791-17.582,11.791-18.95,0-.526-3.9,2.527-8.633,6.738-10.844,9.58-16.634,13.581-26.425,18.213-18.74,8.949-26.215,4.738-22.951-13.055,2.632-14,14-32.321,25.373-40.638,6.527-4.738,8.949-4.527,8.844.737-.211,6.106-8.422,17.477-17.792,24.53-1.79,1.369-1.9,1.684-.526,2.632,4.948,3.264,19.266-2.211,25.794-9.686,4.843-5.685,7.054-13.055,5.685-18.319-1.474-5.159-8.317-12.318-14.95-15.687C150.238-242.221,148.343-242.431,142.763-240.747Z" transform="translate(64.311 343.073)"/></g></g></svg>