<svg xmlns="http://www.w3.org/2000/svg" xmlns:xlink="http://www.w3.org/1999/xlink" width="150" height="100" viewBox="0 0 150 100"><defs><clipPath id="b"><rect width="150" height="100"/></clipPath></defs><g id="a" clip-path="url(#b)"><path d="M145-1638H5a5.006,5.006,0,0,1-5-5v-90a5.006,5.006,0,0,1,5-5H145a5.006,5.006,0,0,1,5,5v90A5.006,5.006,0,0,1,145-1638Zm-93-90a2,2,0,0,0-2,2v76a2,2,0,0,0,2,2h86a2,2,0,0,0,2-2v-76a2,2,0,0,0-2-2Zm-40,70a2,2,0,0,0-2,2v6a2,2,0,0,0,2,2H38a2,2,0,0,0,2-2v-6a2,2,0,0,0-2-2Zm0-50a2,2,0,0,0-2,2v36a2,2,0,0,0,2,2H38a2,2,0,0,0,2-2v-36a2,2,0,0,0-2-2Zm0-20a2,2,0,0,0-2,2v6a2,2,0,0,0,2,2H38a2,2,0,0,0,2-2v-6a2,2,0,0,0-2-2Z" transform="translate(0 1738)"/><rect width="30" height="10" rx="2" transform="translate(10 80)" fill="#ff4757"/></g></svg>