<svg xmlns="http://www.w3.org/2000/svg" xmlns:xlink="http://www.w3.org/1999/xlink" width="300" height="50" viewBox="0 0 300 50"><defs><clipPath id="b"><rect width="300" height="50"/></clipPath></defs><g id="a" clip-path="url(#b)"><path d="M295-938H5a5.006,5.006,0,0,1-5-5v-40a5.006,5.006,0,0,1,5-5H295a5.006,5.006,0,0,1,5,5v40A5.006,5.006,0,0,1,295-938ZM122-978a2,2,0,0,0-2,2v26a2,2,0,0,0,2,2H288a2,2,0,0,0,2-2v-26a2,2,0,0,0-2-2ZM12-978a2,2,0,0,0-2,2v26a2,2,0,0,0,2,2h96a2,2,0,0,0,2-2v-26a2,2,0,0,0-2-2Zm0,0a2,2,0,0,0-2,2v26a2,2,0,0,0,2,2C-.9-948-.9-978,12-978Z" transform="translate(0 988)"/><rect width="170" height="30" rx="2" transform="translate(120 10)" fill="#ff4757"/></g></svg>