<svg xmlns="http://www.w3.org/2000/svg" xmlns:xlink="http://www.w3.org/1999/xlink" width="200" height="100" viewBox="0 0 200 100"><defs><clipPath id="b"><rect width="200" height="100"/></clipPath></defs><g id="a" clip-path="url(#b)"><path d="M195-1108H5a5.006,5.006,0,0,1-5-5v-90a5.006,5.006,0,0,1,5-5H195a5.005,5.005,0,0,1,5,5v90A5.006,5.006,0,0,1,195-1108ZM12-1198a2,2,0,0,0-2,2v76a2,2,0,0,0,2,2H188a2,2,0,0,0,2-2v-76a2,2,0,0,0-2-2Z" transform="translate(0 1208)"/><rect width="180" height="80" rx="2" transform="translate(10 10)" fill="#ff4757"/><rect width="150" height="50" rx="2" transform="translate(25 25)" opacity="0.33"/></g></svg>