<svg xmlns="http://www.w3.org/2000/svg" xmlns:xlink="http://www.w3.org/1999/xlink" width="357" height="120" viewBox="0 0 357 120"><defs><clipPath id="b"><rect width="357" height="120"/></clipPath></defs><g id="a" clip-path="url(#b)"><g transform="translate(-12.781 -190)"><g transform="translate(19.841 177)"><path d="M47.4-154.31c-19.822,4.8-37.086,19.609-43.267,37.3-8.1,23.125-3.2,45.078,13.96,62.236,8.845,8.952,17.371,13.747,28.88,16.518,17.371,4.05,32.61.213,52.965-13.534,9.7-6.5,14.6-8.632,18.117-7.78,1.385.32,5.435,2.558,8.952,4.9,15.879,10.763,26.536,12.575,39.324,6.607a36.486,36.486,0,0,0,17.8-16.838c2.451-4.582,2.877-9.923,2.877-14.387s-.32-9.7-3.2-14.813c-9.8-17.584-23.552-23.445-43.693-18.33-14.174,3.623-17.477,2.131-27.495-13-8.1-12.149-14.6-18.223-24.724-23.232C73.83-155.589,60.4-157.4,47.4-154.31Z" transform="translate(137.672 169.224)" fill="#ff4757" opacity="0.6"/><path d="M33.414,1.033C19.344,4.437,7.09,14.951,2.7,27.509c-5.749,16.415-2.269,32,9.91,44.177a40.039,40.039,0,0,0,20.5,11.725c12.33,2.875,23.148.151,37.6-9.607,6.884-4.614,10.363-6.127,12.86-5.522a31.446,31.446,0,0,1,6.354,3.48c11.271,7.64,18.836,8.926,27.913,4.69A25.9,25.9,0,0,0,130.468,64.5c1.74-3.253,2.042-7.044,2.042-10.212a20.594,20.594,0,0,0-2.269-10.515c-6.959-12.482-16.718-16.642-31.015-13.011C89.165,33.333,86.82,32.274,79.71,21.533,73.961,12.909,69.346,8.6,62.16,5.042,52.175.125,42.643-1.161,33.414,1.033Z" transform="matrix(-0.921, -0.391, 0.391, -0.921, 329.925, 129.554)" fill="#ff4757" opacity="0.4"/></g><g transform="translate(-135.219 168)"><path d="M119.3-298.02c-4.786,1.9-10.066,4.868-12.376,6.848-2.063,1.733-4.29,1.9-16.337,1.073-17.574-1.32-37.459-4.538-48.1-7.921-1.073-.33-1.485,0-1.485,1.073,0,2.558,4.621,11.469,6.931,13.284,4.208,3.218,13.367,4.621,31.6,4.621,9.241.083,16.749.165,16.749.248s-1.073,1.733-2.393,3.713C91-270.792,84.482-258.993,79.944-250c-8.581,17.162-17.987,42.9-19.967,54.7-.908,5.611-.908,6.188.578,8.251,1.815,2.475,7.1,5.611,10.066,6.023,1.98.248,2.145-.083,3.053-6.023,2.228-14.6,9.571-38.367,17.244-56.354,4.868-11.386,13.119-27.971,16.172-32.344l2.31-3.383,7.673-.908c8.746-.99,16.749-3.63,18.07-6.023.66-1.238.413-2.228-.908-4.456-1.65-2.723-8.746-9.489-9.819-9.489A53.079,53.079,0,0,0,119.3-298.02Z" transform="translate(107 322)" fill="#ff4757"/><path d="M135.59-240.977c-6.848,1.9-14.769,10.231-20.3,21.37a50.109,50.109,0,0,0-5.693,23.845c0,6.518.248,8.416,1.733,11.221,3.465,6.6,11.221,11.386,18.4,11.386,8.5.083,18.977-6.518,27.063-17,3.63-4.786,9.241-13.779,9.241-14.852,0-.413-3.053,1.98-6.766,5.281-8.5,7.508-13.036,10.644-20.71,14.274-14.687,7.013-20.545,3.713-17.987-10.231,2.063-10.974,10.974-25.33,19.885-31.849,5.116-3.713,7.013-3.548,6.931.578-.165,4.786-6.6,13.7-13.944,19.225-1.4,1.073-1.485,1.32-.413,2.063,3.878,2.558,15.1-1.733,20.215-7.591,3.8-4.456,5.528-10.231,4.455-14.357-1.155-4.043-6.518-9.654-11.716-12.294C141.449-242.132,139.963-242.3,135.59-240.977Z" transform="translate(95.001 311.823)" fill="#ff4757"/></g></g></g></svg>