<svg xmlns="http://www.w3.org/2000/svg" xmlns:xlink="http://www.w3.org/1999/xlink" width="100" height="100" viewBox="0 0 100 100"><defs><clipPath id="b"><rect width="100" height="100"/></clipPath></defs><g id="a" clip-path="url(#b)"><path d="M-7260-448a49.685,49.685,0,0,1-19.462-3.929,49.836,49.836,0,0,1-15.893-10.715,49.823,49.823,0,0,1-10.715-15.893A49.684,49.684,0,0,1-7310-498a49.679,49.679,0,0,1,3.929-19.462,49.821,49.821,0,0,1,10.715-15.893,49.835,49.835,0,0,1,15.893-10.715A49.688,49.688,0,0,1-7260-548a49.7,49.7,0,0,1,19.463,3.929,49.828,49.828,0,0,1,15.893,10.715,49.827,49.827,0,0,1,10.716,15.893A49.679,49.679,0,0,1-7210-498a49.684,49.684,0,0,1-3.929,19.463,49.828,49.828,0,0,1-10.716,15.893,49.828,49.828,0,0,1-15.893,10.715A49.692,49.692,0,0,1-7260-448Zm0-42.806h0l17.041,17.041a2.584,2.584,0,0,0,1.844.765,2.585,2.585,0,0,0,1.844-.765l3.507-3.506a2.59,2.59,0,0,0,.764-1.844,2.59,2.59,0,0,0-.764-1.844L-7252.8-498l17.041-17.043a2.59,2.59,0,0,0,.764-1.844,2.59,2.59,0,0,0-.764-1.844l-3.507-3.506a2.591,2.591,0,0,0-1.844-.764,2.59,2.59,0,0,0-1.844.764L-7260-505.194l-17.042-17.041a2.6,2.6,0,0,0-1.845-.764,2.59,2.59,0,0,0-1.844.764l-3.506,3.506a2.59,2.59,0,0,0-.764,1.844,2.59,2.59,0,0,0,.764,1.844L-7267.194-498l-17.041,17.043a2.59,2.59,0,0,0-.764,1.844,2.59,2.59,0,0,0,.764,1.844l3.506,3.506a2.589,2.589,0,0,0,1.844.764,2.6,2.6,0,0,0,1.845-.764L-7260-490.8Z" transform="translate(7310 548)"/></g></svg>