<svg xmlns="http://www.w3.org/2000/svg" xmlns:xlink="http://www.w3.org/1999/xlink" width="500" height="282" viewBox="0 0 500 282"><defs><clipPath id="b"><rect width="500" height="282"/></clipPath></defs><g id="a" clip-path="url(#b)"><g transform="translate(0 -109)"><path d="M111.057-152.343C64.431-141.063,23.822-106.219,9.283-64.607-9.769-10.21,1.762,41.429,42.121,81.788c20.806,21.057,40.86,32.337,67.933,38.855,40.86,9.526,76.707.5,124.586-31.836,22.812-15.291,34.343-20.3,42.615-18.3,3.259.752,12.784,6.016,21.057,11.531,37.351,25.318,62.418,29.58,92.5,15.542,18.8-8.774,32.588-21.558,41.863-39.607,5.766-10.779,6.768-23.342,6.768-33.841s-.752-22.812-7.52-34.844c-23.062-41.362-55.4-55.149-102.777-43.116-33.34,8.523-41.111,5.014-64.674-30.583-19.051-28.577-34.343-42.866-58.157-54.647C173.225-155.351,141.64-159.613,111.057-152.343Z" transform="translate(-0.328 265.765)" fill="#ff4757" opacity="0.6"/><path d="M78.927-153.336C45.83-145.329,17-120.6,6.684-91.058-6.839-52.445,1.346-15.79,29.994,12.858,44.763,27.8,59,35.812,78.215,40.438c29,6.762,54.449.356,88.435-22.6C182.843,6.986,191.028,3.427,196.9,4.851c2.313.534,9.075,4.271,14.947,8.185,26.513,17.972,44.306,21,65.659,11.032,13.345-6.228,23.132-15.3,29.716-28.114,4.093-7.651,4.8-16.569,4.8-24.022s-.534-16.192-5.338-24.733c-16.37-29.36-39.324-39.146-72.955-30.605-23.666,6.05-29.182,3.559-45.908-21.708-13.523-20.285-24.378-30.427-41.282-38.79C123.056-155.471,100.635-158.5,78.927-153.336Z" transform="matrix(-0.921, -0.391, 0.391, -0.921, 512.621, 239.829)" fill="#ff4757" opacity="0.4"/></g></g></svg>