<svg xmlns="http://www.w3.org/2000/svg" xmlns:xlink="http://www.w3.org/1999/xlink" width="500" height="500" viewBox="0 0 500 500"><defs><clipPath id="b"><rect width="500" height="500"/></clipPath></defs><g id="a" clip-path="url(#b)"><g transform="translate(-135 -22)"><path d="M369.9-291.682c-20.1,7.971-42.282,20.448-51.987,28.766-8.664,7.278-18.022,7.971-68.622,4.506-73.821-5.545-157.346-19.062-202.054-33.271-4.506-1.386-6.238,0-6.238,4.505,0,10.744,19.408,48.174,29.112,55.8,17.675,13.517,56.145,19.408,132.739,19.408,38.817.347,70.355.693,70.355,1.04s-4.505,7.278-10.051,15.6c-12.13,18.022-39.51,67.583-58.571,105.359-36.044,72.088-75.554,180.22-83.872,229.78-3.812,23.567-3.812,25.993,2.426,34.658,7.625,10.4,29.806,23.567,42.282,25.3,8.318,1.04,9.011-.347,12.823-25.3,9.358-61.344,40.2-161.158,72.434-236.712,20.448-47.828,55.106-117.489,67.929-135.858l9.7-14.21,32.232-3.812c36.737-4.159,70.355-15.249,75.9-25.3,2.773-5.2,1.733-9.358-3.812-18.715C425.7-271.581,395.895-300,391.389-300,390.349-300,380.645-296.188,369.9-291.682Z" transform="translate(107 322)" fill="#ff4757"/><path d="M218.772-238.3c-28.766,7.971-62.037,42.975-85.258,89.763C116.878-115.616,109.947-86.5,109.6-48.381c0,27.38,1.04,35.351,7.278,47.134,14.556,27.726,47.134,47.828,77.287,47.828,35.7.347,79.713-27.38,113.677-71.395,15.249-20.1,38.817-57.878,38.817-62.384,0-1.733-12.823,8.318-28.419,22.181-35.7,31.538-54.759,44.708-86.991,59.958-61.691,29.459-86.3,15.6-75.554-42.976,8.664-46.095,46.095-106.4,83.525-133.779,21.488-15.6,29.459-14.9,29.113,2.426-.693,20.1-27.726,57.532-58.572,80.752-5.892,4.506-6.238,5.545-1.733,8.664,16.289,10.744,63.424-7.278,84.911-31.885,15.943-18.715,23.221-42.976,18.715-60.3-4.852-16.982-27.38-40.549-49.214-51.64C243.379-243.157,237.14-243.85,218.772-238.3Z" transform="translate(276.152 465.478)" fill="#ff4757"/></g></g></svg>