<svg xmlns="http://www.w3.org/2000/svg" xmlns:xlink="http://www.w3.org/1999/xlink" width="347" height="120" viewBox="0 0 347 120"><defs><clipPath id="b"><rect width="347" height="120"/></clipPath></defs><g id="a" clip-path="url(#b)"><path d="M-1680.379-203.021c-2.97-.413-8.251-3.549-10.067-6.024-1.485-2.063-1.485-2.641-.577-8.251,1.98-11.8,11.386-37.542,19.967-54.7,4.538-8.994,11.056-20.793,13.944-25.083,1.32-1.981,2.393-3.631,2.393-3.713s-7.509-.165-16.75-.247c-18.234,0-27.393-1.4-31.6-4.621-2.31-1.815-6.931-10.726-6.931-13.284,0-1.073.412-1.4,1.485-1.073,10.644,3.383,30.529,6.6,48.1,7.921,12.047.825,14.274.661,16.337-1.072,2.31-1.981,7.591-4.951,12.377-6.849a53.382,53.382,0,0,1,5.115-1.98c1.073,0,8.169,6.766,9.819,9.489,1.32,2.228,1.568,3.218.907,4.456-1.319,2.392-9.323,5.033-18.069,6.023l-7.673.908-2.31,3.382c-3.053,4.373-11.3,20.957-16.171,32.344-7.673,17.987-15.017,41.749-17.245,56.354-.785,5.14-1.015,6.08-2.344,6.08A5.881,5.881,0,0,1-1680.379-203.021Zm47.113-2.31c-7.178,0-14.935-4.786-18.4-11.387-1.486-2.805-1.733-4.7-1.733-11.221a50.122,50.122,0,0,1,5.693-23.846c5.529-11.138,13.45-19.471,20.3-21.37,4.373-1.32,5.858-1.155,10.4,1.073,5.2,2.64,10.562,8.251,11.716,12.294,1.073,4.126-.66,9.9-4.455,14.356-5.116,5.859-16.338,10.149-20.215,7.592-1.073-.743-.99-.99.412-2.063,7.343-5.529,13.779-14.44,13.945-19.225.082-4.126-1.815-4.29-6.931-.578-8.911,6.519-17.823,20.876-19.885,31.849-2.557,13.944,3.3,17.244,17.987,10.231,7.673-3.631,12.211-6.766,20.71-14.274,3.713-3.3,6.766-5.693,6.766-5.281,0,1.073-5.611,10.066-9.241,14.852-8.037,10.415-18.437,17-26.906,17Z" transform="translate(1710 322)" fill="#ff4757"/><path d="M-1604.918-256.919l1.459-29.174,14.918-.108,1.039,29.156c.331,6.093-4.3,9.176-8.876,9.175C-1600.885-247.87-1605.334-250.863-1604.918-256.919Zm29,7.683v-70.459h32.178c15.673,0,26.221,10.01,26.221,25.683,0,15.528-11.182,25.538-27.636,25.538h-10.058v19.238Zm20.7-34.521h5.81c6.884,0,10.986-3.467,10.986-10.205,0-6.69-4.1-10.156-10.84-10.156h-5.956Zm-95.7,34.521-10.5-40.332h-.391l-10.5,40.332h-19.532L-1710-319.694h21.387l8.105,44.531h.391l10.5-44.531h16.016l10.5,44.531h.391l8.105-44.531h21.387l-18.164,70.459Zm43.566-49.186a3.447,3.447,0,0,1,.022-3.085l9.115-18.037.714-.005-.1,14.162a3.412,3.412,0,0,0-.718.48,3.451,3.451,0,0,0-.034,4.879,3.449,3.449,0,0,0,4.878-.035,3.45,3.45,0,0,0,.035-4.879,3.245,3.245,0,0,0-.711-.47l.1-14.161.715-.005,8.857,17.907a3.451,3.451,0,0,1-.022,3.086l-3.952,8.958-15.075.108Z" transform="translate(1864.5 343)" stroke="rgba(0,0,0,0)" stroke-width="1" opacity="0.66"/></g></svg>