<svg xmlns="http://www.w3.org/2000/svg" xmlns:xlink="http://www.w3.org/1999/xlink" width="100" height="50" viewBox="0 0 100 50"><defs><clipPath id="b"><rect width="100" height="50"/></clipPath></defs><g id="a" clip-path="url(#b)"><path d="M0,0H85a5,5,0,0,1,5,5v5a0,0,0,0,1,0,0H0a0,0,0,0,1,0,0V0A0,0,0,0,1,0,0Z" transform="translate(10)" opacity="0.33"/><path d="M0,0H90a0,0,0,0,1,0,0V35a5,5,0,0,1-5,5H0a0,0,0,0,1,0,0V0A0,0,0,0,1,0,0Z" transform="translate(10 10)" fill="#ff4757"/><path d="M5,0h5a0,0,0,0,1,0,0V50a0,0,0,0,1,0,0H5a5,5,0,0,1-5-5V5A5,5,0,0,1,5,0Z"/></g></svg>