<svg xmlns="http://www.w3.org/2000/svg" xmlns:xlink="http://www.w3.org/1999/xlink" width="150" height="200" viewBox="0 0 150 200"><defs><clipPath id="b"><rect width="150" height="200"/></clipPath></defs><g id="a" clip-path="url(#b)"><path d="M145-528H5a5.006,5.006,0,0,1-5-5V-723a5.006,5.006,0,0,1,5-5H145a5.006,5.006,0,0,1,5,5v190A5.006,5.006,0,0,1,145-528ZM12-613a2,2,0,0,0-2,2v71a2,2,0,0,0,2,2H138a2,2,0,0,0,2-2v-71a2,2,0,0,0-2-2Zm0-70a2,2,0,0,0-2,2v56a2,2,0,0,0,2,2H138a2,2,0,0,0,2-2v-56a2,2,0,0,0-2-2Zm0-35a2,2,0,0,0-2,2v21a2,2,0,0,0,2,2H138a2,2,0,0,0,2-2v-21a2,2,0,0,0-2-2Z" transform="translate(0 728)"/><rect width="130" height="75" rx="2" transform="translate(10 115)" fill="#ff4757"/></g></svg>